# xmcd
#
# Track frame offsets:
#	150
#	24094
#	45816
#	65737
#	84384
#	103847
#	126361
#	144769
#
# Disc length: 2216 seconds
# Revision: 0
# Processed by: cddbd v1.5.2PL0 Copyright (c) Steve Scherf et al.
# Submitted via: dBpowerAMP V12.0
#
DISCID=5d08a608
DTITLE=Ritchie Family - I'll Do My Best
DYEAR=1982
DGENRE=R&B
TTITLE0=I'll Do My Best (For You Baby)
TTITLE1=This Love's On Me
TTITLE2=One And Only
TTITLE3=You Can Always Count On Me
TTITLE4=Walk With Me
TTITLE5=Alright The Night
TTITLE6=Tonight I Need To Have Your Love
TTITLE7=You've Got Me Dancing' 
EXTD=
EXTT0=
EXTT1=
EXTT2=
EXTT3=
EXTT4=
EXTT5=
EXTT6=
EXTT7=
PLAYORDER=
